HIERARCHY
ROOT Hips
{
	OFFSET 0.000000 8.830580 0.000000
	CHANNELS 6 Xposition Yposition Zposition Zrotation Yrotation Xrotation 
	JOINT Spine
	{
		OFFSET 0.000000 0.010000 0.000000
		CHANNELS 3 Zrotation Yrotation Xrotation
		JOINT Spine1
		{
			OFFSET 0.000000 2.459130 0.000000
			CHANNELS 3 Zrotation Yrotation Xrotation
			JOINT Neck
			{
				OFFSET 0.000000 2.484630 0.000000
				CHANNELS 3 Zrotation Yrotation Xrotation
				JOINT Head_virtual
				{
					OFFSET 0.000000 0.000000 0.000000
					CHANNELS 3 Zrotation Yrotation Xrotation
					JOINT Head
					{
						OFFSET 0.000000 0.927525 0.000000
						CHANNELS 3 Zrotation Yrotation Xrotation
						End Site
						{
							OFFSET 0.000000 0.000000 0.000000
						}
					}
				}
				JOINT LeftUpArm_virtual
				{
					OFFSET 0.000000 0.000000 0.000000
					CHANNELS 3 Zrotation Yrotation Xrotation
					JOINT LeftUpArm
					{
						OFFSET 1.248820 0.000000 0.000000
						CHANNELS 3 Zrotation Yrotation Xrotation
						JOINT LeftForeArm
						{
							OFFSET 2.597580 0.000000 0.000000
							CHANNELS 3 Zrotation Yrotation Xrotation
							JOINT LeftHand
							{
								OFFSET 2.455420 0.000000 0.000000
								CHANNELS 3 Zrotation Yrotation Xrotation
								End Site
								{
									OFFSET 0.000000 0.000000 0.000000
								}
							}
						}
					}
				}
				JOINT RightUpArm_virtual
				{
					OFFSET -0.000000 -0.000000 -0.000000
					CHANNELS 3 Zrotation Yrotation Xrotation
					JOINT RightUpArm
					{
						OFFSET -1.248820 -0.000000 -0.000000
						CHANNELS 3 Zrotation Yrotation Xrotation
						JOINT RightForeArm
						{
							OFFSET -2.597580 -0.000000 -0.000000
							CHANNELS 3 Zrotation Yrotation Xrotation
							JOINT RightHand
							{
								OFFSET -2.455420 -0.000000 -0.000000
								CHANNELS 3 Zrotation Yrotation Xrotation
								End Site
								{
									OFFSET 0.000000 0.000000 0.000000
								}
							}
						}
					}
				}
			}
		}
	}
	JOINT LeftUpLeg
	{
		OFFSET 1.271939 0.000000 0.000000
		CHANNELS 3 Zrotation Yrotation Xrotation
		JOINT LeftLowLeg
		{
			OFFSET 0.000000 -4.342910 0.000000
			CHANNELS 3 Zrotation Yrotation Xrotation
			JOINT LeftFoot
			{
				OFFSET 0.000000 -4.487670 0.000000
				CHANNELS 3 Zrotation Yrotation Xrotation
				JOINT LeftToeBase
				{
					OFFSET 0.000000 0.000000 1.515070
					CHANNELS 3 Zrotation Yrotation Xrotation
					End Site
					{
						OFFSET 0.000000 0.000000 0.000000
					}
				}
			}
		}
	}
	JOINT RightUpLeg
	{
		OFFSET -1.271939 0.000000 0.000000
		CHANNELS 3 Zrotation Yrotation Xrotation
		JOINT RightLowLeg
		{
			OFFSET 0.000000 -4.342910 0.000000
			CHANNELS 3 Zrotation Yrotation Xrotation
			JOINT RightFoot
			{
				OFFSET 0.000000 -4.487670 0.000000
				CHANNELS 3 Zrotation Yrotation Xrotation
				JOINT RightToeBase
				{
					OFFSET 0.000000 0.000000 1.515070
					CHANNELS 3 Zrotation Yrotation Xrotation
					End Site
					{
						OFFSET 0.000000 0.000000 0.000000
					}
				}
			}
		}
	}
}
MOTION
Frames: 16
Frame Time: 0.041667
-18.441077 9.153463 43.050492 -175.003139 1.963318 -172.897285 2.603958 0.115611 -6.029572 2.919296 0.333391 -9.100615 0.000000 0.000000 0.000000 -4.031434 -3.859692 31.577536 12.153706 6.795763 -84.567002 -24.469900 13.198400 -9.609070 11.423900 -8.864380 -24.924000 0.000000 -6.157090 0.000000 29.694201 7.411950 26.335300 20.677799 -10.955800 -6.661440 -6.321630 -3.963310 -50.501400 0.000000 17.763000 0.000000 -30.128099 -13.974600 44.423801 4.555823 -0.906555 -5.942106 0.000000 0.000000 5.304650 -15.124866 12.199584 0.821145 0.000000 0.000000 -29.638600 5.898410 -2.235129 -5.099030 0.000000 0.000000 8.077210 11.317126 -20.177093 4.914151 0.000000 0.000000 -32.927700 
-18.441095 9.153717 43.050186 -175.015936 2.009857 -172.951592 2.574793 0.140087 -5.997408 2.924122 0.362115 -9.088763 0.000000 0.000000 0.000000 -4.045796 -3.855413 31.666830 12.093185 6.787586 -84.559172 -24.415400 13.201700 -9.591110 11.311800 -8.768170 -24.938499 0.000000 -6.301430 0.000000 29.591000 7.512430 26.289200 20.672800 -10.951100 -6.657210 -6.314670 -3.980030 -50.485500 0.000000 17.740101 0.000000 -30.157000 -14.011000 44.518799 4.535716 -0.896291 -5.863150 0.000000 0.000000 5.275080 -15.154871 12.239639 0.834981 0.000000 0.000000 -29.671700 5.874727 -2.198704 -5.043012 0.000000 0.000000 8.067590 11.304455 -20.157609 4.929841 0.000000 0.000000 -32.967600 
-18.440857 9.153631 43.051581 -175.009187 1.980139 -172.971295 2.565578 0.130930 -5.965795 2.931871 0.354862 -9.110906 0.000000 0.000000 0.000000 -4.050377 -3.873162 31.720260 12.020009 6.771030 -84.513480 -24.420401 13.217200 -9.606400 11.287000 -8.774590 -24.964199 0.000000 -6.300190 0.000000 29.590000 7.464940 26.332399 20.656200 -10.940700 -6.657670 -6.284070 -3.996270 -50.550098 0.000000 17.737801 0.000000 -30.128201 -14.036800 44.430500 4.548179 -0.902429 -5.862680 0.000000 0.000000 5.286810 -15.139851 12.210536 0.837038 0.000000 0.000000 -29.663200 5.886114 -2.226052 -5.033198 0.000000 0.000000 8.072190 11.303419 -20.152603 4.930536 0.000000 0.000000 -32.943501 
-18.440886 9.153671 43.051531 -175.011374 2.011295 -172.973019 2.557444 0.144160 -5.977899 2.929039 0.369248 -9.102641 0.000000 0.000000 0.000000 -4.063930 -3.848001 31.767196 12.033100 6.770223 -84.528281 -24.434500 13.235700 -9.596860 11.297100 -8.796570 -24.981899 0.000000 -6.274380 0.000000 29.620899 7.433340 26.371500 20.626200 -10.924000 -6.704310 -6.235390 -4.000500 -50.536400 0.000000 17.763300 0.000000 -30.132401 -14.116400 44.445099 4.540790 -0.855407 -5.844064 0.000000 0.000000 5.267890 -15.130703 12.198709 0.846106 0.000000 0.000000 -29.635400 5.879012 -2.178782 -5.031067 0.000000 0.000000 8.070870 11.311032 -20.158852 4.928175 0.000000 0.000000 -32.961399 
-18.440677 9.153755 43.052288 -175.013003 2.018332 -173.003366 2.545194 0.163777 -5.959445 2.917301 0.391892 -9.125425 0.000000 0.000000 0.000000 -4.074097 -3.854086 31.869892 12.026098 6.749642 -84.483033 -24.463699 13.200100 -9.619470 11.310200 -8.799750 -24.833799 0.000000 -6.246540 0.000000 29.627100 7.409400 26.396799 20.613800 -10.927600 -6.676620 -6.198100 -4.024730 -50.620998 0.000000 17.765301 0.000000 -30.082701 -14.100800 44.308399 4.541066 -0.884291 -5.819025 0.000000 0.000000 5.267750 -15.142453 12.235198 0.848576 0.000000 0.000000 -29.676900 5.876132 -2.173707 -5.014207 0.000000 0.000000 8.085950 11.316685 -20.161543 4.928261 0.000000 0.000000 -32.979500 
-18.440520 9.153761 43.052051 -175.008257 1.997935 -173.029566 2.548264 0.164773 -5.961385 2.901553 0.392422 -9.117326 0.000000 0.000000 0.000000 -4.076982 -3.861554 31.931725 12.020900 6.751195 -84.489052 -24.397600 13.194600 -9.619320 11.200200 -8.719760 -24.761600 0.000000 -6.404510 0.000000 29.548300 7.434350 26.402399 20.594200 -10.902300 -6.712820 -6.161270 -4.062030 -50.547798 0.000000 17.773300 0.000000 -30.079201 -14.077900 44.460201 4.547660 -0.894685 -5.795899 0.000000 0.000000 5.269650 -15.143283 12.230305 0.846411 0.000000 0.000000 -29.666100 5.883797 -2.210924 -4.988033 0.000000 0.000000 8.089510 11.309923 -20.147947 4.933052 0.000000 0.000000 -33.002701 
-18.440153 9.153916 43.051613 -174.997535 1.990315 -173.116278 2.539475 0.164571 -5.909674 2.918802 0.392594 -9.097815 0.000000 0.000000 0.000000 -4.086067 -3.872341 31.967508 11.996267 6.739500 -84.493596 -24.399200 13.199400 -9.579710 11.167100 -8.702690 -24.807899 0.000000 -6.442980 0.000000 29.551901 7.396160 26.315001 20.584000 -10.910100 -6.741310 -6.146100 -4.046730 -50.491798 0.000000 17.816500 0.000000 -30.154400 -14.138300 44.403301 4.560429 -0.898212 -5.708134 0.000000 0.000000 5.271650 -15.124215 12.213110 0.845538 0.000000 0.000000 -29.660500 5.894686 -2.218851 -4.899543 0.000000 0.000000 8.092050 11.301912 -20.160518 4.939951 0.000000 0.000000 -32.965000 
-18.440760 9.153667 43.053345 -175.010033 2.010975 -173.028655 2.532751 0.177343 -5.974228 2.910508 0.407493 -9.122303 0.000000 0.000000 0.000000 -4.098031 -3.846218 31.966365 11.978388 6.734069 -84.492181 -24.424299 13.209100 -9.593410 11.172900 -8.747520 -24.832001 0.000000 -6.377770 0.000000 29.646000 7.354520 26.219101 20.563499 -10.894400 -6.738000 -6.120720 -4.059440 -50.480598 0.000000 17.830099 0.000000 -30.111000 -14.099300 44.354599 4.544069 -0.887298 -5.814940 0.000000 0.000000 5.295630 -15.132772 12.225131 0.838311 0.000000 0.000000 -29.668100 5.879222 -2.178873 -5.021450 0.000000 0.000000 8.136750 11.324828 -20.158701 4.912079 0.000000 0.000000 -32.947500 
-18.440987 9.153688 43.053620 -175.009691 1.983510 -173.074711 2.543658 0.182326 -5.962180 2.872857 0.410598 -9.095466 0.000000 0.000000 0.000000 -4.108766 -3.786539 31.988817 12.000167 6.758807 -84.531546 -24.363701 13.202600 -9.557220 11.055500 -8.673030 -24.929501 0.000000 -6.615180 0.000000 29.513399 7.618590 25.962700 20.540899 -10.888600 -6.675610 -6.049670 -4.097450 -50.490398 0.000000 17.852400 0.000000 -30.004101 -14.072500 44.189400 4.542838 -0.873333 -5.788434 0.000000 0.000000 5.317990 -15.123176 12.192626 0.840971 0.000000 0.000000 -29.660900 5.879584 -2.219441 -4.985079 0.000000 0.000000 8.153020 11.321874 -20.147614 4.912794 0.000000 0.000000 -32.945900 
-18.440985 9.153713 43.053901 -175.014170 1.978318 -173.091279 2.541957 0.184389 -5.957881 2.853036 0.413168 -9.092658 0.000000 0.000000 0.000000 -4.087800 -3.824364 31.981532 11.952806 6.766561 -84.498256 -24.346800 13.174600 -9.549380 11.019600 -8.624630 -25.049299 0.000000 -6.717480 0.000000 29.541300 7.754050 25.771400 20.537300 -10.881400 -6.631810 -6.027980 -4.108310 -50.469799 0.000000 17.840200 0.000000 -30.019300 -14.086500 44.085602 4.539246 -0.888955 -5.781668 0.000000 0.000000 5.329440 -15.150759 12.202724 0.841310 0.000000 0.000000 -29.678000 5.875122 -2.209497 -4.973867 0.000000 0.000000 8.160160 11.330791 -20.160538 4.903397 0.000000 0.000000 -32.992500 
-18.441060 9.153499 43.054716 -175.011012 1.954605 -173.133997 2.552646 0.189580 -5.942783 2.811925 0.416498 -9.062882 0.000000 0.000000 0.000000 -4.081195 -3.786956 31.993859 11.963229 6.804459 -84.525070 -24.292200 13.122500 -9.573540 10.873400 -8.516530 -25.555201 0.000000 -7.065650 0.000000 29.534300 8.025790 25.222200 20.500500 -10.863200 -6.677430 -5.946740 -4.140910 -50.290001 0.000000 17.855200 0.000000 -30.065500 -14.223200 43.916698 4.543305 -0.890804 -5.758248 0.000000 0.000000 5.345630 -15.127484 12.169625 0.842024 0.000000 0.000000 -29.661500 5.878874 -2.227522 -4.949219 0.000000 0.000000 8.188210 11.341615 -20.167739 4.884654 0.000000 0.000000 -32.945801 
-18.441004 9.153471 43.055317 -175.014231 1.939407 -173.152078 2.548152 0.194595 -5.931554 2.796078 0.422500 -9.062858 0.000000 0.000000 0.000000 -4.065007 -3.805479 31.993178 11.913170 6.817846 -84.501551 -24.334101 13.103600 -9.534410 10.885400 -8.521750 -26.047600 0.000000 -7.177550 0.000000 29.656300 8.071450 24.859600 20.509600 -10.919800 -6.648840 -5.927800 -4.042410 -50.428902 0.000000 17.810499 0.000000 -30.098301 -14.171700 44.000900 4.539699 -0.865129 -5.751198 0.000000 0.000000 5.354600 -15.137823 12.137315 0.846422 0.000000 0.000000 -29.661100 5.877036 -2.216378 -4.941916 0.000000 0.000000 8.201830 11.357136 -20.189460 4.870945 0.000000 0.000000 -32.951799 
-18.440731 9.153483 43.055594 -175.016651 1.921365 -173.175391 2.541589 0.198281 -5.925825 2.763360 0.427971 -9.070145 0.000000 0.000000 0.000000 -4.047352 -3.803166 32.036658 11.881845 6.858299 -84.511440 -24.274000 13.106200 -9.480020 10.729600 -8.479110 -26.713100 0.000000 -7.610500 0.000000 29.690500 8.205510 24.754601 20.504101 -10.906700 -6.602550 -5.866880 -4.068250 -50.471199 0.000000 17.798901 0.000000 -30.100201 -14.139800 43.895599 4.539664 -0.876035 -5.739313 0.000000 0.000000 5.361510 -15.157897 12.127893 0.853858 0.000000 0.000000 -29.693900 5.877394 -2.257373 -4.907558 0.000000 0.000000 8.177100 11.344790 -20.173921 4.884741 0.000000 0.000000 -32.973400 
-18.440521 9.153075 43.056392 -175.012465 1.901888 -173.198397 2.574412 0.224855 -5.912916 2.622556 0.453027 -9.097747 0.000000 0.000000 0.000000 -3.961987 -3.854019 32.079404 11.780569 6.979497 -84.496430 -24.175800 13.081600 -9.395790 10.539000 -8.301190 -26.457100 0.000000 -8.668650 0.000000 29.742001 8.493520 24.666700 20.506300 -10.894500 -6.508700 -5.726970 -4.085270 -50.602100 0.000000 17.743799 0.000000 -29.924400 -14.077200 44.065899 4.543921 -0.847131 -5.732109 0.000000 0.000000 5.375100 -15.129617 12.083407 0.850649 0.000000 0.000000 -29.682500 5.883995 -2.225951 -4.909504 0.000000 0.000000 8.221380 11.355946 -20.213284 4.849624 0.000000 0.000000 -32.930599 
-18.440145 9.152777 43.056817 -175.006505 1.894792 -173.206631 2.586449 0.246323 -5.910675 2.536238 0.475030 -9.121756 0.000000 0.000000 0.000000 -3.903693 -3.883980 32.104599 11.689477 7.063894 -84.478448 -24.077999 13.113500 -9.395160 10.313200 -8.159450 -26.441401 0.000000 -9.722400 0.000000 29.715000 8.382580 24.581301 20.528601 -10.893100 -6.441180 -5.670310 -4.094330 -50.625801 0.000000 17.627800 0.000000 -29.602400 -13.722500 44.189499 4.555909 -0.903019 -5.730754 0.000000 0.000000 5.383530 -15.146222 12.124588 0.822550 0.000000 0.000000 -29.683400 5.893168 -2.218542 -4.902564 0.000000 0.000000 8.219250 11.363329 -20.227014 4.839925 0.000000 0.000000 -32.953300 
-18.439815 9.152504 43.057461 -175.008082 1.879050 -173.211308 2.593788 0.265470 -5.891163 2.446530 0.497002 -9.200509 0.000000 0.000000 0.000000 -3.850844 -3.924865 32.168319 11.594906 7.136389 -84.452404 -24.014900 13.130400 -9.246740 10.135600 -7.924560 -26.618500 0.000000 -11.050000 0.000000 29.622000 8.358120 23.628901 20.511499 -10.828200 -6.388160 -5.559920 -4.204340 -50.620201 0.000000 17.604300 0.000000 -29.521000 -13.651000 44.152302 4.556092 -0.875946 -5.735243 0.000000 0.000000 5.387200 -15.142079 12.086670 0.829592 0.000000 0.000000 -29.677400 5.895014 -2.248076 -4.907737 0.000000 0.000000 8.232610 11.366006 -20.206388 4.828302 0.000000 0.000000 -32.944700 
